<?xml version="1.0" standalone="no"?>
<!DOCTYPE svg PUBLIC "-//W3C//DTD SVG 20010904//EN"
 "http://www.w3.org/TR/2001/REC-SVG-20010904/DTD/svg10.dtd">
<svg version="1.0" xmlns="http://www.w3.org/2000/svg"
 width="700.000000pt" height="700.000000pt" viewBox="0 0 700.000000 700.000000"
 preserveAspectRatio="xMidYMid meet">
<metadata>
Created by potrace 1.14, written by Peter Selinger 2001-2017
</metadata>
<g transform="translate(0.000000,700.000000) scale(0.100000,-0.100000)"
fill="#000000" stroke="none">
<path d="M3290 6934 c-149 -13 -279 -28 -375 -45 -890 -158 -1706 -689 -2210
-1439 -95 -142 -147 -247 -230 -470 -32 -85 -102 -254 -155 -375 -150 -339
-183 -460 -215 -794 -87 -900 188 -1827 753 -2541 160 -203 458 -478 692 -641
435 -303 1018 -507 1630 -571 171 -17 565 -14 745 6 475 53 959 209 1349 432
109 63 343 218 441 293 160 122 290 276 273 322 -3 8 -49 38 -102 68 l-97 53
-526 570 -525 569 56 56 c67 67 120 144 153 226 47 117 53 179 53 588 l0 379
794 0 c769 0 796 -1 828 -19 18 -11 71 -32 118 -47 47 -14 109 -37 139 -50 29
-13 57 -24 61 -24 16 0 32 68 37 160 7 115 -11 242 -73 535 -76 358 -134 547
-242 791 -272 616 -698 1136 -1162 1420 -126 77 -239 126 -516 222 -521 182
-876 273 -1219 312 -99 11 -403 20 -475 14z m470 -375 c324 -29 678 -145 985
-323 55 -32 136 -70 180 -85 119 -40 290 -148 418 -262 l37 -34 -405 -440
c-224 -242 -412 -446 -420 -454 -11 -11 -22 -11 -63 -2 l-49 12 -7 371 c-4
205 -9 375 -12 379 -2 4 -77 -36 -167 -88 -289 -170 -488 -296 -480 -303 11
-10 328 -186 458 -255 200 -106 233 -95 -267 -95 l-438 0 0 795 0 795 58 0
c31 0 109 -5 172 -11z m-360 -787 l0 -788 -442 4 c-359 3 -458 1 -523 -11 -78
-15 -80 -15 -102 7 -12 11 -168 181 -348 376 l-327 355 71 67 c40 37 122 103
184 147 421 298 809 489 1169 576 95 23 254 51 301 54 16 1 17 -43 17 -787z
m2184 -114 c456 -487 789 -1097 875 -1607 12 -68 21 -140 21 -160 0 -20 9 -60
20 -88 l20 -53 -759 0 -760 0 -3 338 c-4 319 -5 341 -27 407 -50 155 -132 264
-284 380 l-26 20 402 437 c221 240 405 437 409 437 4 1 54 -50 112 -111z
m-3728 -340 c153 -167 300 -326 327 -355 l49 -52 -39 -20 c-149 -78 -277 -248
-324 -429 -17 -67 -19 -112 -19 -394 l0 -318 -675 0 -675 0 0 29 c0 16 5 75
10 132 40 403 166 708 427 1035 58 72 628 673 639 674 1 0 127 -136 280 -302z
m1375 -1043 c37 -19 69 -70 69 -108 0 -41 -27 -92 -55 -107 -14 -7 -25 -17
-25 -22 0 -5 36 -70 79 -145 l79 -136 -39 -37 c-35 -33 -39 -42 -39 -86 0
-112 107 -180 197 -124 88 53 92 169 7 225 l-32 21 82 139 82 139 -38 37 c-34
32 -38 41 -38 83 0 82 50 136 125 136 88 0 147 -79 124 -164 -9 -32 -51 -78
-81 -88 -8 -3 8 -51 52 -153 61 -141 63 -149 45 -159 -11 -6 -34 -25 -52 -42
-27 -27 -33 -39 -33 -75 0 -123 131 -180 217 -94 29 29 33 40 33 84 0 42 -5
56 -31 85 l-30 35 95 148 94 147 -24 29 c-30 36 -32 89 -4 135 31 51 101 68
159 37 31 -15 61 -69 61 -108 0 -40 -41 -90 -88 -107 -28 -9 -44 -22 -47 -35
-3 -11 -37 -193 -75 -405 -39 -212 -73 -393 -76 -402 -5 -17 -42 -18 -602 -18
l-597 0 -59 318 c-32 174 -67 365 -78 423 -20 105 -20 107 -50 113 -47 9 -98
67 -98 110 0 129 170 176 224 62 22 -47 20 -77 -8 -119 l-24 -35 93 -146 94
-145 -29 -29 c-71 -72 -41 -183 58 -213 35 -10 45 -9 78 7 54 26 87 78 81 126
-6 46 -41 96 -73 104 -13 3 -24 12 -24 18 0 7 27 74 60 149 33 76 60 141 60
145 0 4 -14 16 -30 25 -61 36 -78 118 -37 178 39 58 106 76 168 44z m-1386
-902 c-4 -137 -2 -329 3 -428 9 -163 13 -188 40 -263 40 -107 107 -207 189
-281 l65 -59 -403 -436 -402 -437 -25 23 c-13 13 -103 110 -200 216 -154 169
-185 208 -245 315 -136 241 -250 484 -298 635 -23 75 -53 425 -65 770 l-7 192
677 0 677 0 -6 -247z m2205 -318 c39 -20 49 -68 22 -104 -15 -20 -32 -28 -73
-34 -30 -4 -310 -6 -622 -5 l-569 3 -24 28 c-37 44 -29 88 21 115 14 8 205 11
618 12 509 0 602 -2 627 -15z m1092 -1302 c566 -615 523 -552 466 -672 -42
-90 -138 -183 -243 -238 -44 -23 -159 -73 -255 -113 -218 -88 -395 -177 -480
-239 -104 -77 -171 -103 -310 -122 -71 -9 -562 2 -727 17 l-63 6 0 914 0 914
418 0 c372 0 426 2 502 19 47 11 105 28 130 39 25 12 48 21 52 21 3 1 233
-245 510 -546z m-2787 496 c61 -19 103 -22 320 -28 l250 -6 -105 -13 c-97 -12
-597 -90 -611 -95 -13 -4 545 -707 561 -707 8 0 115 262 235 575 l92 240 152
3 151 3 0 -911 c0 -897 0 -910 -20 -910 -39 0 -338 41 -445 61 -542 101 -962
298 -1222 573 -45 47 -109 128 -143 178 -34 51 -80 111 -101 134 l-40 41 412
447 c289 313 417 446 428 442 9 -3 48 -15 86 -27z"/>
<path d="M2929 6174 c-181 -244 -231 -315 -226 -320 10 -11 583 -71 592 -62 4
4 -127 309 -201 467 l-40 85 -125 -170z"/>
<path d="M5480 5353 c-186 -109 -540 -324 -544 -332 -3 -4 45 -36 107 -71 141
-80 548 -300 555 -300 7 0 -8 744 -16 752 -4 4 -50 -18 -102 -49z"/>
<path d="M1694 5332 c-21 -16 -92 -66 -156 -112 -65 -46 -118 -87 -118 -90 0
-7 22 -17 254 -122 l109 -48 -6 82 c-12 159 -31 318 -37 318 -3 0 -24 -13 -46
-28z"/>
<path d="M1470 2814 c-303 -41 -720 -108 -720 -116 0 -24 551 -710 562 -700
17 18 332 819 326 831 -2 4 -77 -3 -168 -15z"/>
<path d="M4340 1329 c-169 -24 -724 -110 -727 -113 -4 -4 246 -324 408 -522
83 -102 155 -182 160 -177 15 15 329 804 329 828 0 7 -15 5 -170 -16z"/>
</g>
</svg>
